<?xml version="1.0" encoding="utf-8"?>
<!-- Generator: Adobe Illustrator 25.0.1, SVG Export Plug-In . SVG Version: 6.00 Build 0)  -->
<svg version="1.1" id="圖層_1" xmlns="http://www.w3.org/2000/svg" xmlns:xlink="http://www.w3.org/1999/xlink" x="0px" y="0px"
	 viewBox="0 0 714.3 393" style="enable-background:new 0 0 714.3 393;" xml:space="preserve">
<style type="text/css">
	.st0{fill:none;}
	.st1{fill:#0051C3;}
	.st2{fill:#87B1FF;}
	.st3{fill:#111111;}
</style>
<g id="fill">
	<path class="st0" d="M434.3,59.7l-3.9,3.2L433,65C433.3,63.3,433.8,61.5,434.3,59.7z"/>
	<polygon class="st0" points="302.6,390.5 340.2,390.5 340.2,369 	"/>
	<path class="st0" d="M111.2,355.8c1.3-0.7,2.2-1.9,2.5-3.3c0.5-3.1-1.5-6-4.6-6.5c-0.1,0-0.1,0-0.2,0c-2.6-0.4-9.7,2.9-12.6,4.4
		c3.6,3.5,9.1,6,11.1,6.3C108.7,356.8,110,356.5,111.2,355.8z"/>
	<rect x="164.1" y="162.2" class="st0" width="77.9" height="40.9"/>
	<path class="st0" d="M490.2,69.9c-0.1,3.8,3.4,11.1,7.1,13.3c1,0.7,2.3,0.8,3.4,0.2c3.8-2.2,2.2-6.7,0.4-10.5
		c-0.1-0.2-0.2-0.4-0.3-0.6c-0.5-0.9-5.4-7.1-10.6-13.3C490.2,62,490.3,66.5,490.2,69.9z"/>
	<path class="st0" d="M426,279.7c-0.5,0-1,0-1.6-0.1c-0.1,0.1-0.3,0.1-0.5,0.1c-1.9-0.1-3.8,0.6-5.2,1.9c-2.3,2.5-2,6.4-2,6.4v41.4
		l39.4-18.5l-13.2-31.3L426,279.7z"/>
	<path class="st0" d="M112.3,321.6c0-0.4-0.2-0.7-0.6-0.7l0,0l-30.1-2.3l0,0c-0.2,0-0.3,0.1-0.4,0.2s-0.2,0.3-0.2,0.5s0,0.3,0.2,0.5
		c0.1,0.1,0.3,0.2,0.4,0.2l30.1,2.3C112,322.2,112.3,322,112.3,321.6z"/>
	<path class="st0" d="M376.8,390.5c0-4.3,1.2-18.3,18-22.5c2.4-0.3,3.5-2.4,2.2-7.5c-1-4.1-3.5-13.7-4.3-17.1l-1.9,0.9
		c-0.2,0.1-0.3,0.1-0.5,0.1s-0.3,0-0.5-0.1c-0.3-0.1-0.6-0.4-0.7-0.7l-16.5-39.2l-3.2,36.2c-0.1,0.6-0.6,1.1-1.2,1.1h-0.1l-2.4-0.2
		v48.9h11.1V390.5z"/>
	<path class="st0" d="M483.9,114.6c1.5,0,2.7-1.2,2.7-2.7s-1.2-2.7-2.7-2.7h-35.7c-1.5,0-2.7,1.2-2.7,2.7s1.2,2.7,2.7,2.7l0,0H483.9
		z"/>
	<path class="st0" d="M114.8,326.1c1.2-1,1.9-2.5,2.1-4.1c0.2-3.3-2.2-6.1-5.5-6.4l-28.8-2.2c-3.2-0.7-6.4,1.4-7.1,4.7
		c-0.7,3.2,1.4,6.4,4.7,7.1c0.5,0.1,1,0.1,1.5,0.1l28.8,2.2C112.1,327.7,113.6,327.2,114.8,326.1z M81.3,322.4
		c-1.7-0.1-3-1.7-2.9-3.4c0.1-0.8,0.5-1.6,1.1-2.1s1.5-0.8,2.3-0.8l30.1,2.3c0.8,0.1,1.6,0.5,2.2,1.1c1.1,1.3,1,3.3-0.3,4.5
		c-0.6,0.5-1.3,0.8-2.1,0.8h-0.2L81.3,322.4z"/>
	<path class="st0" d="M501.1,168.9c2.2-3.9,5.8-8,11.3-9.5l-11.2-19.8C501.4,147.8,501.2,161.1,501.1,168.9z"/>
	<path class="st0" d="M500.9,175.2L500.9,175.2c-0.4,1.2-0.5,1.9-0.6,2l-11.9,46.4c-0.1,0.6-0.6,0.9-1.2,0.9h-57.6
		c-7.9,0-11.3,10.1-12.5,13.5c-0.1,0.4-0.2,0.7-0.4,1.1v27.8c0,8.9,5.8,10.3,9.2,10.3h108.3c6.6,0,7.3-2.1,8.6-6l0.2-0.6
		c1.3-4,24.4-93.5,25.3-100.7c0.3-1.9-0.2-3.8-1.4-5.3c-1.8-2.1-5.4-3.3-9.7-3.3h-3.9c-8.1,0-24.9,0.1-36.3,0h-0.1
		C506.7,161.3,502.4,170.9,500.9,175.2z"/>
	<path class="st0" d="M74.6,348.6c0,3.1,3.6,5.1,5.6,5.1c2.1,0,7.8-1.6,12-4.5c-2.7-1.9-9.2-6.2-11.8-6.2c-3.1-0.1-5.7,2.3-5.7,5.4
		C74.6,348.4,74.6,348.5,74.6,348.6z"/>
	<path class="st0" d="M375.9,29l-0.1-26.5H127.5l0.1,26.5H375.9z M167.9,9.7c2.9,0,5.3,2.4,5.3,5.3s-2.4,5.3-5.3,5.3
		c-2.9,0-5.3-2.4-5.3-5.3C162.6,12,164.9,9.7,167.9,9.7L167.9,9.7L167.9,9.7z M153.8,9.7c2.9,0,5.3,2.4,5.3,5.3s-2.4,5.3-5.3,5.3
		c-2.9,0-5.3-2.4-5.3-5.3C148.5,12,150.9,9.7,153.8,9.7L153.8,9.7L153.8,9.7z M139.7,9.7c2.9,0,5.3,2.4,5.3,5.3s-2.4,5.3-5.3,5.3
		c-2.9,0-5.3-2.4-5.3-5.3C134.4,12,136.8,9.7,139.7,9.7L139.7,9.7L139.7,9.7z"/>
	<path class="st0" d="M455.1,79.1c-0.2-0.7,0.1-1.4,0.8-1.6c2.9-1.1,4.8-3.7,5-6.8c0.4-3.3-1-6.5-3.8-8.3
		c-7.4-4.6-12.4,2.5-12.5,2.8c-0.4,0.6-1.1,0.7-1.7,0.3l0,0c-0.2-0.1-0.3-0.3-0.4-0.5l0,0c-0.1-0.1-0.1-0.3-0.1-0.4
		c-1-4.3-1.6-8.8-1.6-13.2c-0.3,0.6-0.6,1.2-1,1.8c-1.9,3.1-3.8,9.5-4.5,14.7c-0.8,6.1-0.7,21,16.5,27.7c0.5,0.2,0.8,0.7,0.8,1.2
		v10.1H477V90.5c-3.2-0.7-11.7-3.2-21.2-10.7C455.4,79.6,455.2,79.4,455.1,79.1z M454.5,73.3c-0.2,0.4-0.6,0.6-1.1,0.6
		c-0.2,0-0.5-0.1-0.7-0.2l-5-3.1c-0.6-0.4-0.8-1.1-0.4-1.7c0.1-0.2,0.3-0.4,0.5-0.5l7.4-3.5c0.6-0.3,1.4-0.1,1.7,0.5
		c0.3,0.6,0.1,1.4-0.5,1.7c0,0-0.1,0-0.1,0.1l-5.3,2.5l3,1.8C454.6,71.9,454.8,72.7,454.5,73.3L454.5,73.3z"/>
	<path class="st0" d="M665.6,347.1h-33.8c-1.9,0.2-3.7,1.1-5.1,2.5c-1.2,1.3-1.7,3.1-1.5,4.9l0.1,1.2c0.5,7,1.6,21.5,9.9,21.5h27
		c8.3,0,9.4-14.5,9.9-21.5l0.1-1.2c0.2-1.8-0.3-3.5-1.5-4.9C669.3,348.2,667.5,347.3,665.6,347.1z"/>
	<path class="st0" d="M283.7,244.4c-0.7,0-1.2-0.6-1.2-1.2s0.6-1.2,1.2-1.2h17.8c0.2-2.6,0.5-5.2,0.7-7.7h-18.6
		c-0.7,0-1.2-0.6-1.2-1.2s0.6-1.2,1.2-1.2h18.8c0.2-2.6,0.5-5.2,0.7-7.7h-19.5c-0.7,0-1.2-0.6-1.2-1.2s0.6-1.2,1.2-1.2h19.8
		c0.6-6,1.1-11.4,1.5-15.9H267c-0.7,0-1.2-0.6-1.2-1.2V161c0-0.7,0.6-1.2,1.2-1.2h27.6c-0.4-0.7-0.5-1.4-0.5-2.2
		c0-4.4,5.9-7.1,13.8-8.9c-6-0.2-11.2-1-13.5-3.3c-0.9-0.8-1.3-2-1.2-3.2c0.3-6.5,13.5-9.4,39.4-8.5c18.1,0.6,35.7,8,38.2,9.1
		c1.8-0.1,3.6,0,5.5,0.2l-0.5-111.6H127.6l1,234.1l170.8-0.7c0.7-6.9,1.3-13.8,2-20.4L283.7,244.4z M296.6,80.8h36
		c0.7,0,1.2,0.6,1.2,1.2s-0.6,1.2-1.2,1.2h-36c-0.7,0-1.2-0.6-1.2-1.2S295.9,80.8,296.6,80.8z M296.6,89.9h36c0.7,0,1.2,0.6,1.2,1.2
		s-0.6,1.2-1.2,1.2h-36c-0.7,0-1.2-0.6-1.2-1.2S295.9,89.9,296.6,89.9z M296.6,99.1h36c0.7,0,1.2,0.6,1.2,1.2s-0.6,1.2-1.2,1.2h-36
		c-0.7,0-1.2-0.6-1.2-1.2S295.9,99.1,296.6,99.1z M224,244.4h-40c-0.7,0-1.2-0.6-1.2-1.2s0.6-1.2,1.2-1.2h40c0.7,0,1.2,0.6,1.2,1.2
		S224.7,244.4,224,244.4z M224,234.3h-40c-0.7,0-1.2-0.6-1.2-1.2s0.6-1.2,1.2-1.2h40c0.7,0,1.2,0.6,1.2,1.2S224.7,234.3,224,234.3z
		 M224,224.1h-40c-0.7,0-1.2-0.6-1.2-1.2s0.6-1.2,1.2-1.2h40c0.7,0,1.2,0.6,1.2,1.2S224.7,224.1,224,224.1z M244.5,204.4
		c0,0.7-0.6,1.2-1.2,1.2h-80.4c-0.7,0-1.2-0.6-1.2-1.2V161c0-0.7,0.6-1.2,1.2-1.2h80.4c0.7,0,1.3,0.5,1.3,1.2l0,0L244.5,204.4z
		 M254.2,139.3H152v-85h102.3L254.2,139.3z"/>
	<path class="st0" d="M704.1,346.9c-2.3-7.5-4.9-16-7.3-23.9c-5-16.6-20.7-22.5-25.4-23.6V322c0,0.7-0.6,1.2-1.2,1.2h-42.9
		c-0.7,0-1.2-0.6-1.2-1.2v-22.6c-4.7,1.1-20.4,7-25.4,23.6c-2.4,7.9-5,16.4-7.3,23.9c-3.3,10.7-5.8,19.1-6.3,21.1
		c0,0.1-3.6,13,1.1,19.2c1.7,2.2,4.2,3.3,7.8,3.3h105.7c3.5,0,6.1-1.1,7.8-3.3c4.7-6.2,1.2-19,1.1-19.1
		C709.9,366,707.3,357.6,704.1,346.9z M627.2,327.4h42.9c0.7,0,1.2,0.6,1.2,1.2s-0.6,1.2-1.2,1.2h-42.9c-0.7,0-1.2-0.6-1.2-1.2
		S626.6,327.4,627.2,327.4z M674.7,354.6l-0.1,1.2c-0.6,7.7-1.8,23.8-12.4,23.8h-27c-10.6,0-11.8-16-12.4-23.8l-0.1-1.2
		c-0.3-2.5,0.5-4.9,2.2-6.8c1.8-1.9,4.3-3.1,6.9-3.3h33.8c2.6,0.2,5.1,1.4,7,3.3C674.2,349.7,675,352.2,674.7,354.6z"/>
	<rect x="628.5" y="299.3" class="st0" width="40.4" height="21.5"/>
	<path class="st0" d="M668.7,296.8c-1.5-11-11.6-18.8-22.7-17.3c-9,1.2-16.1,8.3-17.3,17.3H668.7z"/>
	<path class="st0" d="M633.8,102.7c27.5,0,49.8-22.3,49.8-49.8S661.3,3.1,633.8,3.1S584,25.4,584,52.9l0,0
		C584,80.4,606.3,102.6,633.8,102.7z M632.5,18.4c0-0.7,0.6-1.2,1.2-1.2s1.2,0.6,1.2,1.2v30.9l18.8-15.1c0.6-0.4,1.4-0.3,1.8,0.2
		c0.4,0.6,0.3,1.4-0.2,1.8l0,0l-20.8,16.7c-0.2,0.2-0.5,0.3-0.8,0.3c-0.2,0-0.4,0-0.5-0.1c-0.4-0.2-0.7-0.6-0.7-1.1V18.4z"/>
	<path class="st0" d="M309.5,177.9c-0.7-1.1-0.9-2.4-0.5-3.6c1-3.8,6.8-7.9,12.8-11.4c-14.1,1.2-20.6,0.5-23.8-0.6h-29.7v41h36.9
		c0.5-5.4,0.8-9.2,0.9-10.6c0.4-7.1,3.2-11.1,5.1-13.1C310.5,179.1,309.9,178.6,309.5,177.9z"/>
	<path class="st0" d="M366.1,143.5c-6.5-2.5-19.9-6.9-33.5-7.4c-33.9-1.2-36.8,4.4-36.9,6.1c0,0.5,0.2,1,0.5,1.4
		c2.8,2.9,13.7,2.7,21.7,2.6c2,0,3.9,0,5.6,0c0.7,0,1.2,0.5,1.2,1.2s-0.4,1.2-1.1,1.3c-18,2.1-27.1,5.1-27.1,8.8
		c-0.1,0.5,0.2,1.1,0.6,1.4c0.4,0.4,0.9,0.6,1.5,0.8h0.1c3.3,1.2,11.1,1.9,29-0.1c0.7-0.1,1.3,0.4,1.4,1.1c0.1,0.5-0.2,1-0.7,1.2
		c-10,5-16.2,9.7-17.1,12.8c-0.2,0.5-0.1,1.1,0.2,1.6c0.8,1.2,4.2,3.5,18.4-2.4l0.7-0.3c5.9-2.4,12.3-1.4,19.2,2.9
		c-0.6-1.3-1.2-2.7-1.6-4.1c-2-6.1-1.1-12.9,2.5-18.2C354.4,149,359.8,145.1,366.1,143.5z"/>
	<path class="st0" d="M370.9,242.2c-0.6-0.3-0.8-1.1-0.5-1.7c0.3-0.6,1-0.8,1.6-0.6l42.4,19.8v-21.6c0-0.4,0.2-0.8,0.5-1
		c1.3-3.8,5.1-15.1,14.8-15.1h56.6l11.7-45.4c0,0,0.2-0.8,0.6-2.1c0-2.4,0.6-32.4,0-40.1c-0.5-6.7-10.8-15.6-13.2-17.6
		c-0.5,0.1-0.9,0.2-1.4,0.2h-33.2c-1,0.4-7.8,3.3-13.4,15.6c-6.4,14.1-13.8,30.5-13.8,30.5c-0.3,0.6-1,0.9-1.6,0.6
		c-0.4-0.2-41-17-43.7-17.9c-0.1-0.1-15.6-4.6-25.2,9.8c-3.2,4.8-4,10.7-2.2,16.1c2.3,7.6,8.2,13.7,12.6,15.6
		c3.2,1.4,12.9,5.4,23.2,9.6c16.2,6.7,34.5,14.2,36.8,15.3c0.2,0.1,21,9.5,29.9-8.7c8.5-17.4,25.3-52.7,25.5-53
		c0.3-0.6,1.1-0.8,1.7-0.5s0.8,1,0.6,1.6c-0.2,0.4-17.1,35.7-25.5,53c-3.8,7.8-10.2,12.1-18.7,12.6c-0.5,0-1,0-1.5,0
		c-4.5,0-9-1-13.1-2.8c-2.2-1.1-20.5-8.6-36.6-15.3c-10.7-4.4-20-8.2-23.2-9.6c-3.5-1.7-6.6-4.3-8.9-7.4c-8.1-6.8-15.4-9-21.8-6.3
		l-0.7,0.3c-7.5,3.1-13.1,4.4-16.9,3.9c-1.1,0.8-4.9,4.2-5.4,12.4c-0.6,9.6-12.1,126.9-13.4,140.4l71.9,6.1l8.5-94.8L370.9,242.2z"
		/>
	<path class="st0" d="M414.3,288.1c0-0.1-0.3-5,2.7-8.2c0.7-0.8,1.6-1.4,2.6-1.9c-2.8-1.6-5.3-4.8-5.3-11.1v-4.4l-36.3-17l-4.8,53.6
		l17.9,42.3l23.2-10.9L414.3,288.1z"/>
	<path class="st0" d="M457.8,373.9l-9.6-19.9l-16.3,36.5h113.9V288.1c0-0.1,0.2-4.1-2.1-6.5c-1.4-1.3-3.2-2-5.1-1.9h-92.9l13.3,31.5
		c0.3,0.6,0,1.3-0.6,1.6l-1.1,0.5l23.8,48.8L457.8,373.9z"/>
	<path class="st1" d="M340.2,369v21.5h25.5v-48.9l-68.7-5.8c-7.1,23.3-16.9,25.7-29.3,31.7c-10.6,5.1-12.4,18.8-12.7,23h47.5
		L340.2,369z"/>
	<polygon class="st1" points="448.2,354 457.8,373.9 481,362.1 457.2,313.3 416.8,332.2 416.8,390.5 431.9,390.5 	"/>
	<path class="st1" d="M394.9,368c-16.8,4.2-18.1,18.2-18,22.5h37.5v-57.1l-21.5,10.1c0.9,3.4,3.3,12.9,4.3,17.1
		C398.4,365.6,397.3,367.7,394.9,368z"/>
	<rect x="151.9" y="54.4" class="st1" width="102.3" height="85"/>
	<path class="st1" d="M487.7,59c-5.1,6.2-10.1,12.4-10.6,13.3c-0.1,0.2-0.2,0.3-0.3,0.6c-1.8,3.8-3.4,8.4,0.4,10.5
		c1.1,0.6,2.4,0.5,3.4-0.2c3.7-2.2,7.2-9.4,7.1-13.3C487.6,66.5,487.6,62,487.7,59z"/>
	<path class="st1" d="M442.3,65"/>
	<path class="st1" d="M440.6,51.3c0,4.5,0.6,8.9,1.6,13.2c0-0.3,0-0.5,0.2-0.7c2.2-3.3,8.3-8.3,16-3.6c3.6,2.3,5.5,6.5,5,10.7
		c-0.3,4-2.9,7.5-6.6,8.9c-0.1,0.1-0.3,0.1-0.4,0.1c-0.2,0-0.4-0.1-0.5-0.1c9.5,7.6,18,10,21.2,10.7h0.1c0.7,0.2,1.5,0,2.1-0.6
		c0.1-0.1,0.2-0.2,0.3-0.3c2.2-2.1,4-4.5,5.5-7.1c-0.9,1.1-2,2-3.1,2.8c-1,0.6-2.1,1-3.2,1c-0.9,0-1.8-0.3-2.6-0.7
		c-6.2-3.6-2.6-11.2-1.4-13.8l0.2-0.5c0.8-1.8,11.1-14.2,13.2-16.6l0.1-0.1l0.1-0.1l0.2-0.1h0.1l0,0h0.2h0.2h0.2h0.2l0,0h0.1
		l0.2,0.1l0.1,0.1l0.1,0.1l1.4,1.7h0.5c13.2,0,23.8-10.7,23.8-23.9S505,8.7,491.8,8.7S468,19.4,468,32.5c0,0.6,0,1.2,0.1,1.7
		c-2.3-0.2-4.5-0.2-6.4-0.2c-8.5,0-14.1,3.5-19,9.2c-0.6,0.7-1.2,1.5-1.8,2.3l-0.1,0.1l0,0C440.6,47.6,440.5,49.4,440.6,51.3z"/>
	<circle class="st2" cx="139.7" cy="14.9" r="5.3"/>
	<circle class="st2" cx="153.8" cy="14.9" r="5.3"/>
	<circle class="st2" cx="167.9" cy="14.9" r="5.3"/>
	<path class="st2" d="M68.1,239.4c0-17-12.6-31.4-29.4-33.7l10.2-14c2.1-2.9,1.5-7-1.4-9.1s-7-1.5-9.1,1.4l-4.1,5.6l-0.8-7.3
		c-0.4-3.6-3.6-6.1-7.2-5.7s-6.1,3.6-5.7,7.2l0.8,7.1l-5.5-4.7c-2.7-2.4-6.8-2.2-9.2,0.5s-2.2,6.8,0.5,9.2c0.1,0.1,0.2,0.1,0.2,0.2
		l13.8,11.7c-17.5,7.2-25.9,27-18.8,44.4c5.2,12.9,17.7,21.3,31.6,21.2c0.5,0,1,0,1.4,0c0.8,0,1.7-0.1,2.5-0.2
		C55.1,271.3,68.1,256.7,68.1,239.4z"/>
</g>
<g id="border">
	<path class="st3" d="M243.2,159.7h-80.4c-0.7,0-1.3,0.6-1.3,1.2l0,0v43.4c0,0.7,0.6,1.2,1.2,1.2h80.4c0.7,0,1.2-0.6,1.2-1.2V161
		C244.5,160.3,244,159.7,243.2,159.7C243.3,159.7,243.3,159.7,243.2,159.7z M242,203.2h-77.9v-41H242V203.2z"/>
	<path class="st3" d="M224,221.6h-40c-0.7,0-1.2,0.6-1.2,1.2s0.6,1.2,1.2,1.2h40c0.7,0,1.2-0.6,1.2-1.2S224.7,221.6,224,221.6z"/>
	<path class="st3" d="M224,231.8h-40c-0.7,0-1.2,0.6-1.2,1.2s0.6,1.2,1.2,1.2h40c0.7,0,1.2-0.6,1.2-1.2S224.7,231.8,224,231.8z"/>
	<path class="st3" d="M224,242h-40c-0.7,0-1.2,0.6-1.2,1.2s0.6,1.2,1.2,1.2h40c0.7,0,1.2-0.6,1.2-1.2S224.7,242,224,242z"/>
	<path class="st3" d="M296.6,83.2h36c0.7,0,1.2-0.6,1.2-1.2s-0.6-1.2-1.2-1.2h-36c-0.7,0-1.2,0.6-1.2,1.2S295.9,83.2,296.6,83.2z"/>
	<path class="st3" d="M296.6,92.4h36c0.7,0,1.2-0.6,1.2-1.2s-0.6-1.2-1.2-1.2h-36c-0.7,0-1.2,0.6-1.2,1.2S295.9,92.4,296.6,92.4z"/>
	<path class="st3" d="M296.6,101.6h36c0.7,0,1.2-0.6,1.2-1.2s-0.6-1.2-1.2-1.2h-36c-0.7,0-1.2,0.6-1.2,1.2S295.9,101.6,296.6,101.6z
		"/>
	<path class="st3" d="M633.8,105.2c28.9,0,52.3-23.4,52.3-52.3S662.7,0.6,633.8,0.6S581.5,24,581.5,52.9l0,0
		C581.5,81.8,604.9,105.1,633.8,105.2z M633.8,3.1c27.5,0,49.8,22.3,49.8,49.8s-22.3,49.8-49.8,49.8S584,80.4,584,52.9l0,0
		C584,25.4,606.3,3.1,633.8,3.1z"/>
	<path class="st3" d="M633.2,53c0.2,0.1,0.4,0.1,0.5,0.1c0.3,0,0.6-0.1,0.8-0.3l20.8-16.7c0.6-0.4,0.6-1.2,0.2-1.8
		c-0.4-0.6-1.2-0.6-1.8-0.2l0,0L635,49.3V18.4c0-0.7-0.6-1.2-1.2-1.2s-1.2,0.6-1.2,1.2v33.5C632.5,52.4,632.8,52.8,633.2,53z"/>
	<path class="st3" d="M440.9,45.6c0.6-0.8,1.2-1.5,1.8-2.3C442,44,441.4,44.8,440.9,45.6z"/>
	<path class="st3" d="M442.3,65c0.1,0.2,0.2,0.4,0.4,0.5c0.6,0.4,1.3,0.2,1.7-0.3l0,0c0.2-0.3,5.1-7.5,12.5-2.8
		c2.8,1.8,4.2,5,3.8,8.3c-0.2,3.1-2.1,5.7-5,6.8c-0.6,0.2-1,0.9-0.8,1.6c0.1,0.3,0.4,0.6,0.7,0.7c0.2,0.1,0.3,0.1,0.5,0.1
		c0.1,0,0.3,0,0.4-0.1c3.7-1.4,6.3-4.9,6.6-8.9c0.5-4.2-1.4-8.4-5-10.7c-7.6-4.7-13.8,0.3-16,3.6c-0.1,0.2-0.2,0.5-0.2,0.7
		c0,0.2,0,0.3,0.1,0.4L442.3,65z"/>
	<path class="st3" d="M454.1,71.6l-3-1.8l5.3-2.5c0.6-0.3,0.9-1,0.7-1.6c-0.3-0.6-1-0.9-1.6-0.7c0,0-0.1,0-0.1,0.1l-7.4,3.5
		c-0.6,0.3-0.9,1-0.6,1.7c0.1,0.2,0.3,0.4,0.5,0.5l5,3.1c0.2,0.1,0.4,0.2,0.7,0.2c0.7,0,1.3-0.6,1.3-1.2
		C454.7,72.2,454.5,71.8,454.1,71.6L454.1,71.6z"/>
	<path class="st3" d="M489.8,54.6l-0.1-0.1l-0.2-0.1h-0.1l0,0h-0.2H489h-0.2h-0.2l0,0h-0.1l-0.2,0.1l-0.1,0.1l-0.1,0.1
		c-2.1,2.5-12.4,14.9-13.2,16.6l-0.2,0.5c-1.2,2.5-4.8,10.2,1.4,13.8c0.8,0.5,1.7,0.7,2.6,0.7c1.2,0,2.3-0.4,3.2-1
		c1.2-0.7,2.3-1.7,3.2-2.7c1.7-2.1,3-4.4,4-6.9c1.5,3.9,4.1,7.8,7.1,9.6c1,0.6,2.1,1,3.2,1c0.9,0,1.8-0.3,2.6-0.7
		c6.2-3.6,2.6-11.2,1.4-13.8c-0.1-0.2-0.2-0.4-0.2-0.5c-0.7-1.5-8.3-10.7-11.8-14.9l-1.4-1.7C489.9,54.6,489.9,54.6,489.8,54.6z
		 M480.6,83.2c-1,0.7-2.3,0.8-3.4,0.2c-3.8-2.2-2.2-6.7-0.4-10.5c0.1-0.2,0.2-0.4,0.3-0.6c0.5-0.9,5.4-7.1,10.6-13.3
		c0,3.1,0,7.6,0,10.9C487.8,73.7,484.2,81,480.6,83.2L480.6,83.2z M501.1,72.9c1.8,3.8,3.4,8.4-0.4,10.5c-1.1,0.6-2.4,0.5-3.4-0.2
		c-3.7-2.2-7.2-9.4-7.1-13.3c0.1-3.4,0-7.9,0-10.9c5.1,6.2,10.1,12.4,10.6,13.3C500.9,72.4,501,72.6,501.1,72.9L501.1,72.9z"/>
	<path class="st3" d="M712.9,367.4c-0.5-2-3.1-10.5-6.4-21.2c-2.3-7.5-4.9-15.9-7.3-23.9c-5.6-18.5-23.1-24.5-28-25.4
		c-1.6-12.4-12.9-21.2-25.4-19.6c-10.3,1.3-18.3,9.4-19.6,19.6c-4.8,0.9-22.4,7-28,25.4c-2.4,7.9-5,16.4-7.3,23.9
		c-3.3,10.7-5.9,19.1-6.4,21.1c-0.2,0.6-3.9,14.1,1.5,21.3c0.5,0.7,1.1,1.3,1.8,1.8h-39.5V288.2c0-0.2,0.3-5.1-2.7-8.3
		c-1-1-2.2-1.8-3.6-2.2c1.8-1.5,2.5-3.6,3.2-5.7l0.2-0.6c1.4-4.3,24.5-93.4,25.4-101.1c0.4-2.6-0.3-5.3-2-7.3
		c-2.3-2.6-6.5-4.1-11.6-4.1h-3.9c-8.1,0-24.9,0.1-36.3,0l0,0c-0.7,0-1.3,0.1-1.9,0.1L501,134c-0.8-7.1-10-15.5-13.4-18.5
		c2-2,2-5.3,0-7.4c-1-1-2.3-1.5-3.7-1.5h-4.5v-17l0,0c0,0-0.2,0.2-0.3,0.3c-0.6,0.5-1.4,0.7-2.1,0.6l0,0v16.2h-24.5V96.6
		c0-0.5-0.3-1-0.8-1.2c-17.3-6.7-17.3-21.6-16.5-27.7c0.7-5.1,2.6-11.6,4.5-14.7c0.4-0.6,0.7-1.2,1-1.8c0-1.9,0-3.8,0.2-5.6
		c-0.7,1.1-1.3,2.2-1.9,3.4c-0.5,0.9-1,1.9-1.5,2.8c-0.6,1.1-1.2,2.2-1.6,3.3l-8.1,6.8c-0.3,0.2-0.5,0.6-0.5,1s0.2,0.8,0.5,1l4.9,4
		C432,73.4,431.8,90,450,97.5v9.2h-1.8c-2.9,0-5.2,2.4-5.2,5.2c0,2.1,1.3,4,3.3,4.8c-3.1,2.2-7.5,6.6-11.3,15
		c-5.4,11.9-11.5,25.5-13.3,29.4c-6.7-2.8-40.2-16.6-42.7-17.5h-0.1L378.3,1.2c0-0.7-0.6-1.2-1.3-1.2l0,0H126.2
		c-0.7,0-1.2,0.6-1.2,1.2l1.1,265.6c0,0.7,0.6,1.2,1.2,1.2l0,0l0,0l171.8-0.7c-3.3,33.7-6.5,66.1-6.5,66.8c0,0.3,0.1,0.7,0.3,0.9
		c0.2,0.3,0.5,0.4,0.9,0.4l3.3,0.3l68.7,5.8l2.4,0.2h0.1c0.6,0,1.2-0.5,1.2-1.1l3.2-36.2l16.5,39.2c0.1,0.3,0.4,0.6,0.7,0.7
		c0.1,0.1,0.3,0.1,0.5,0.1s0.4,0,0.5-0.1l1.9-0.9l21.5-10.1v57.1H90.7l4.3-38c4.1,3.8,9.7,6.2,12,6.6c0.3,0,0.6,0.1,0.9,0.1
		c1.6,0,3.1-0.4,4.4-1.2c2-1,3.4-2.9,3.8-5.1c0.7-4.4-2.2-8.6-6.7-9.3c-0.1,0-0.1,0-0.2,0c-2.9-0.4-10,2.4-13.8,4.4l2.1-18.8l12.6,1
		h0.7c4.7,0,8.5-3.7,8.5-8.4c0-4.5-3.4-8.2-7.9-8.5L82.8,311c-4.7-0.4-8.7,3.1-9.1,7.8c-0.2,2.2,0.5,4.4,2,6.1s3.5,2.8,5.8,2.9
		l13.6,1.1l-2,17.9c-3.4-2.5-10-6.3-12.8-6.3c-4.5-0.1-8.2,3.5-8.2,8c0,0.1,0,0.1,0,0.2c0,4.6,4.8,7.6,8,7.6c2.3,0,7.9-1.5,12.4-4.3
		l-4.4,38.6H50.7c0.4-0.3,0.6-0.7,0.6-1.2L37.9,273.2c-0.8,0.1-1.7,0.2-2.5,0.2l13.3,116.2c0,0.4,0.3,0.7,0.6,0.9H35.5
		c-0.7,0-1.2,0.6-1.2,1.2s0.6,1.2,1.2,1.2h559.8h0.1h0.5h105.7c4.3,0,7.6-1.5,9.8-4.3C716.8,381.5,713,367.9,712.9,367.4z
		 M434.3,59.7c-0.5,1.8-1,3.6-1.3,5.3l-2.6-2.1L434.3,59.7z M108.9,346c3.1,0.4,5.2,3.3,4.8,6.3c0,0.1,0,0.1,0,0.2
		c-0.3,1.4-1.2,2.7-2.5,3.3c-1.1,0.7-2.4,1-3.7,0.9c-2.1-0.3-7.5-2.8-11.1-6.3C99.2,348.8,106.4,345.5,108.9,346z M76.2,319
		c0.3-3.3,3.1-5.7,6.4-5.5l28.8,2.2c3.3,0.3,5.7,3.1,5.5,6.4s-3.1,5.7-6.4,5.5l0,0l-28.8-2.2C78.4,325.1,76,322.2,76.2,319L76.2,319
		z M80.2,353.8c-1.9,0-5.6-2-5.6-5.1c-0.1-3.1,2.4-5.6,5.4-5.7c0.1,0,0.2,0,0.3,0c2.6,0,9.2,4.3,11.8,6.2
		C88,352.1,82.2,353.7,80.2,353.8L80.2,353.8z M517.1,161.3c11.4,0.1,28.2,0,36.3,0h3.9c4.3,0,7.8,1.2,9.7,3.3
		c1.2,1.5,1.8,3.4,1.4,5.3c-0.9,7.2-24,96.7-25.3,100.7l-0.2,0.6c-1.3,3.9-2,6-8.6,6H426c-3.5,0-9.2-1.3-9.2-10.3v-27.8
		c0.1-0.3,0.3-0.7,0.4-1.1c1.1-3.3,4.5-13.5,12.5-13.5h57.6c0.6,0,1.1-0.4,1.2-0.9l11.9-46.4c0-0.1,0.2-0.9,0.6-1.9v-0.1
		C502.4,170.9,506.8,161.3,517.1,161.3L517.1,161.3z M416.8,329.5V288c0,0-0.2-4,2-6.4c1.4-1.3,3.2-2,5.2-1.9c0.2,0,0.3,0,0.5-0.1
		c0.5,0.1,1,0.1,1.6,0.1H443l13.2,31.4L416.8,329.5z M501.1,168.9c0.1-7.7,0.3-21.1,0.1-29.3l11.2,19.8
		C506.9,160.9,503.4,165,501.1,168.9L501.1,168.9z M445.5,111.9c0-1.5,1.2-2.7,2.7-2.7l0,0h35.7c1.5,0,2.7,1.2,2.7,2.7
		s-1.2,2.7-2.7,2.7h-35.7C446.7,114.6,445.5,113.4,445.5,111.9L445.5,111.9z M375.8,2.5l0.1,26.5H127.6l-0.1-26.5H375.8z
		 M128.5,265.6l-1-234.1h248.4l0.5,111.5c-1.8-0.3-3.6-0.4-5.5-0.2c-2.5-1.1-20.1-8.5-38.2-9.1c-25.9-0.9-39.2,2-39.4,8.5
		c-0.1,1.2,0.4,2.4,1.2,3.2c2.3,2.3,7.5,3.1,13.5,3.3c-8,1.8-13.8,4.5-13.8,8.9c0,0.8,0.2,1.5,0.5,2.2h-27.6c-0.7,0-1.2,0.6-1.2,1.2
		v43.4c0,0.7,0.6,1.2,1.2,1.2H305c-0.4,4.5-0.9,9.9-1.5,15.9h-19.8c-0.7,0-1.2,0.6-1.2,1.2s0.6,1.2,1.2,1.2h19.5
		c-0.2,2.5-0.5,5-0.7,7.7h-18.8c-0.7,0-1.2,0.6-1.2,1.2s0.6,1.2,1.2,1.2h18.6c-0.2,2.5-0.5,5.1-0.7,7.7h-17.8
		c-0.7,0-1.2,0.6-1.2,1.2s0.6,1.2,1.2,1.2h17.6c-0.6,6.7-1.3,13.6-2,20.4L128.5,265.6z M348.3,172.7c0.4,1.4,1,2.7,1.6,4.1
		c-6.9-4.4-13.4-5.4-19.2-2.9l-0.7,0.3c-14.2,5.9-17.6,3.6-18.4,2.4c-0.3-0.5-0.4-1-0.2-1.6c0.8-3.1,7.1-7.8,17.1-12.8
		c0.6-0.3,0.9-1.1,0.6-1.7c-0.2-0.5-0.7-0.7-1.2-0.7c-17.9,2-25.7,1.3-29,0.1h-0.1c-0.5-0.2-1-0.5-1.5-0.8c-0.4-0.4-0.6-0.9-0.6-1.4
		c0-3.8,9.1-6.7,27.1-8.8c0.7-0.1,1.1-0.6,1.1-1.3s-0.6-1.2-1.2-1.2c-1.7,0-3.6,0-5.6,0c-8,0.1-19,0.2-21.7-2.6
		c-0.4-0.4-0.6-0.9-0.5-1.4c0.1-1.7,2.9-7.2,36.9-6.1c13.6,0.5,27,4.9,33.5,7.4c-6.3,1.6-11.7,5.5-15.2,10.9
		C347.3,159.8,346.3,166.6,348.3,172.7z M306.1,192.6c-0.1,1.4-0.4,5.2-0.9,10.6h-36.9v-41H298c3.2,1.1,9.6,1.9,23.8,0.6
		c-6.1,3.5-11.8,7.6-12.8,11.4c-0.4,1.2-0.2,2.5,0.5,3.6c0.5,0.7,1.1,1.3,1.8,1.6C309.3,181.4,306.5,185.5,306.1,192.6z
		 M367.1,339.2l-71.9-6.1c1.3-13.5,12.9-130.8,13.4-140.4c0.5-8.1,4.3-11.5,5.4-12.4c3.8,0.5,9.4-0.9,16.9-3.9l0.7-0.3
		c6.4-2.6,13.7-0.5,21.8,6.3c2.3,3.2,5.4,5.7,8.9,7.4c3.2,1.4,12.5,5.2,23.2,9.6c16.1,6.7,34.5,14.2,36.6,15.3
		c4.1,1.8,8.6,2.8,13.1,2.8c0.5,0,1,0,1.5,0c8.4-0.4,14.9-4.8,18.7-12.6c8.5-17.4,25.3-52.7,25.5-53c0.3-0.6,0-1.4-0.7-1.6
		c-0.6-0.2-1.3,0-1.6,0.6c-0.2,0.4-17.1,35.7-25.5,53c-8.9,18.2-29.7,8.8-29.9,8.7c-2.3-1.1-20.6-8.6-36.8-15.3
		c-10.3-4.2-20-8.2-23.2-9.6c-4.4-1.9-10.3-8-12.6-15.6c-1.8-5.5-0.9-11.4,2.2-16.2c9.6-14.5,25-9.9,25.2-9.9
		c2.7,0.9,43.3,17.7,43.7,17.9c0.6,0.3,1.3,0,1.6-0.6c0,0,7.4-16.4,13.8-30.5c5.6-12.3,12.4-15.3,13.4-15.7h33.2
		c0.5,0,1-0.1,1.4-0.2c2.4,2,12.7,11,13.2,17.6c0.6,7.7,0,37.7,0,40.1c-0.4,1.2-0.6,2-0.6,2.1L486.2,222h-56.6
		c-9.7,0-13.5,11.3-14.8,15.1c-0.3,0.2-0.5,0.6-0.5,1v21.6L371.9,240c-0.6-0.3-1.4,0.1-1.6,0.7c-0.2,0.6,0,1.3,0.6,1.6l4.7,2.2
		L367.1,339.2z M373.2,299.1l4.8-53.6l36.3,17v4.4c0,6.3,2.5,9.5,5.3,11.1c-1,0.4-1.9,1.1-2.7,1.8c-3,3.2-2.7,8.1-2.7,8.2v42.5
		L391,341.4L373.2,299.1z M416.8,332.2l40.4-18.9l1.1-0.5c0.6-0.3,0.9-1,0.6-1.6l-13.3-31.5h92.9c1.9-0.1,3.8,0.6,5.1,1.9
		c2.3,2.4,2.1,6.4,2.1,6.5v102.4h-129L416.8,332.2z M628.5,299.3h40.4v21.6h-40.4V299.3z M648.7,279.4c10,0,18.6,7.4,20,17.4h-40
		C630.2,286.8,638.7,279.5,648.7,279.4L648.7,279.4z M709.3,387.2c-1.7,2.2-4.2,3.3-7.8,3.3H595.9c-3.5,0-6.1-1.1-7.8-3.3
		c-4.7-6.2-1.2-19-1.1-19.2c0.5-2,3.1-10.4,6.4-21.1c2.3-7.5,4.9-16,7.3-23.9c5-16.6,20.7-22.5,25.4-23.6V322c0,0.7,0.6,1.2,1.2,1.2
		h42.9c0.7,0,1.2-0.6,1.2-1.2v-22.6c4.7,1.1,20.4,7,25.4,23.6c2.4,7.9,5,16.4,7.3,23.9c3.3,10.7,5.8,19.1,6.4,21.1
		C710.5,368.1,714,381,709.3,387.2L709.3,387.2z"/>
	<path class="st3" d="M627.2,329.9h42.9c0.7,0,1.2-0.6,1.2-1.2s-0.6-1.2-1.2-1.2h-42.9c-0.7,0-1.2,0.6-1.2,1.2
		S626.6,329.9,627.2,329.9z"/>
	<path class="st3" d="M665.6,344.6h-33.8c-2.6,0.2-5.1,1.4-6.9,3.3c-1.7,1.8-2.5,4.3-2.2,6.8l0.1,1.2c0.6,7.7,1.8,23.8,12.4,23.8h27
		c10.6,0,11.8-16,12.4-23.8l0.1-1.2c0.3-2.5-0.5-4.9-2.2-6.8C670.7,346,668.2,344.8,665.6,344.6z M672.2,354.4l-0.1,1.2
		c-0.5,7-1.6,21.5-9.9,21.5h-27c-8.3,0-9.4-14.5-9.9-21.5l-0.1-1.2c-0.2-1.8,0.3-3.5,1.5-4.9c1.4-1.4,3.2-2.2,5.1-2.5h33.8
		c1.9,0.2,3.7,1.1,5.1,2.5C671.9,350.9,672.5,352.6,672.2,354.4L672.2,354.4z"/>
	<path class="st3" d="M111.6,324.7c0.8,0,1.5-0.3,2.1-0.8c1.3-1.1,1.5-3.1,0.3-4.5c-0.5-0.6-1.3-1-2.1-1.1L81.8,316
		c-1.7-0.1-3.3,1.2-3.4,2.9l0,0c-0.1,1.7,1.2,3.3,2.9,3.4l0,0l30.1,2.3L111.6,324.7z M81,319.7c-0.1-0.1-0.2-0.3-0.2-0.5
		s0.1-0.3,0.2-0.5c0.1-0.1,0.3-0.2,0.4-0.2l0,0l30.1,2.3c0.4,0.1,0.6,0.4,0.5,0.8c-0.1,0.3-0.3,0.5-0.6,0.6l-30.1-2.3
		C81.2,319.9,81.1,319.8,81,319.7z"/>
</g>
</svg>
