<?xml version="1.0" encoding="utf-8"?>
<!-- Generator: Adobe Illustrator 25.0.1, SVG Export Plug-In . SVG Version: 6.00 Build 0)  -->
<svg version="1.1" id="圖層_1" xmlns="http://www.w3.org/2000/svg" xmlns:xlink="http://www.w3.org/1999/xlink" x="0px" y="0px"
	 viewBox="0 0 40.6 38.8" style="enable-background:new 0 0 40.6 38.8;" xml:space="preserve">
<style type="text/css">
	.st0{fill:#EFF2F5;}
</style>
<path class="st0" d="M40.5,26.6c0.5-1-0.9-1.9-2-1.5c-2.2,0.9-4.6,1.4-7,1.4c-9.4,0-17.1-7.2-17.1-16c0-3,0.9-5.9,2.6-8.4
	c0.6-1-0.1-2.3-1.3-2C6.7,2.2,0,10,0,19.1C0,30,9.4,38.8,21,38.8C29.9,38.8,37.4,33.8,40.5,26.6z"/>
<path class="st0" d="M28.5,0.2c-1.2-0.8-2.6,0.6-1.8,1.7l1.4,2c0.6,0.8,0.9,1.8,0.9,2.8s-0.3,2-0.9,2.8l-1.4,2
	c-0.8,1.1,0.6,2.5,1.8,1.7l2.1-1.4c0.9-0.6,1.9-0.8,2.9-0.8c1,0,2.1,0.3,2.9,0.8l2.1,1.4c1.2,0.8,2.6-0.6,1.8-1.7l-1.4-2
	c-0.6-0.8-0.9-1.8-0.9-2.8s0.3-2,0.9-2.8l1.4-2c0.8-1.1-0.6-2.5-1.8-1.7l-2.1,1.4c-0.9,0.6-1.9,0.8-2.9,0.8c-1,0-2.1-0.3-2.9-0.8
	L28.5,0.2z"/>
</svg>
