<?xml version="1.0" encoding="utf-8"?>
<!-- Generator: Adobe Illustrator 25.0.1, SVG Export Plug-In . SVG Version: 6.00 Build 0)  -->
<svg version="1.1" id="圖層_1" xmlns="http://www.w3.org/2000/svg" xmlns:xlink="http://www.w3.org/1999/xlink" x="0px" y="0px"
	 viewBox="0 0 48.5 48.5" style="enable-background:new 0 0 48.5 48.5;" xml:space="preserve">
<style type="text/css">
	.st0{fill-rule:evenodd;clip-rule:evenodd;fill:#EFF2F5;}
</style>
<path class="st0" d="M24.3,0c0.6,0,1.1,0.2,1.6,0.6c0.4,0.4,0.6,1,0.6,1.6v4.4c0,0.6-0.2,1.1-0.6,1.6c-0.4,0.4-1,0.6-1.6,0.6
	c-0.6,0-1.1-0.2-1.6-0.6c-0.4-0.4-0.6-1-0.6-1.6V2.2c0-0.6,0.2-1.1,0.6-1.6C23.1,0.2,23.7,0,24.3,0z M11,24.3c0-3.5,1.4-6.9,3.9-9.4
	c2.5-2.5,5.9-3.9,9.4-3.9c3.5,0,6.9,1.4,9.4,3.9c2.5,2.5,3.9,5.9,3.9,9.4c0,3.5-1.4,6.9-3.9,9.4s-5.9,3.9-9.4,3.9
	c-3.5,0-6.9-1.4-9.4-3.9C12.4,31.2,11,27.8,11,24.3z M26.5,41.9c0-0.6-0.2-1.1-0.6-1.6s-1-0.6-1.6-0.6c-0.6,0-1.1,0.2-1.6,0.6
	c-0.4,0.4-0.6,1-0.6,1.6v4.4c0,0.6,0.2,1.1,0.6,1.6c0.4,0.4,1,0.6,1.6,0.6c0.6,0,1.1-0.2,1.6-0.6c0.4-0.4,0.6-1,0.6-1.6V41.9z
	 M48.5,24.3c0,0.6-0.2,1.1-0.6,1.6c-0.4,0.4-1,0.6-1.6,0.6h-4.4c-0.6,0-1.1-0.2-1.6-0.6c-0.4-0.4-0.6-1-0.6-1.6s0.2-1.1,0.6-1.6
	s1-0.6,1.6-0.6h4.4c0.6,0,1.1,0.2,1.6,0.6S48.5,23.7,48.5,24.3z M6.6,26.5c0.6,0,1.1-0.2,1.6-0.6c0.4-0.4,0.6-1,0.6-1.6
	s-0.2-1.1-0.6-1.6c-0.4-0.4-1-0.6-1.6-0.6H2.2c-0.6,0-1.1,0.2-1.6,0.6S0,23.7,0,24.3s0.2,1.1,0.6,1.6c0.4,0.4,1,0.6,1.6,0.6H6.6z
	 M41.4,7.1c0.4,0.4,0.6,1,0.6,1.6c0,0.6-0.2,1.1-0.6,1.6l-3.1,3.1c-0.2,0.2-0.4,0.4-0.7,0.5C37.3,14,37,14,36.7,14
	c-0.3,0-0.6-0.1-0.9-0.2c-0.3-0.1-0.5-0.3-0.7-0.5c-0.2-0.2-0.4-0.5-0.5-0.7c-0.1-0.3-0.2-0.6-0.2-0.9c0-0.3,0.1-0.6,0.2-0.9
	c0.1-0.3,0.3-0.5,0.5-0.7l3.1-3.1c0.4-0.4,1-0.6,1.6-0.6C40.5,6.5,41,6.7,41.4,7.1z M13.3,38.3c0.2-0.2,0.4-0.4,0.5-0.7
	C14,37.3,14,37,14,36.7c0-0.3-0.1-0.6-0.2-0.9c-0.1-0.3-0.3-0.5-0.5-0.7c-0.2-0.2-0.5-0.4-0.7-0.5c-0.3-0.1-0.6-0.2-0.9-0.2
	c-0.3,0-0.6,0.1-0.9,0.2c-0.3,0.1-0.5,0.3-0.7,0.5l-3.1,3.1c-0.2,0.2-0.4,0.4-0.5,0.7c-0.1,0.3-0.2,0.6-0.2,0.9
	c0,0.3,0.1,0.6,0.2,0.9c0.1,0.3,0.3,0.5,0.5,0.7c0.2,0.2,0.5,0.4,0.7,0.5c0.3,0.1,0.6,0.2,0.9,0.2c0.3,0,0.6-0.1,0.9-0.2
	c0.3-0.1,0.5-0.3,0.7-0.5L13.3,38.3z M7.1,7.1c0.4-0.4,1-0.6,1.6-0.6c0.6,0,1.1,0.2,1.6,0.6l3.1,3.1c0.2,0.2,0.4,0.4,0.5,0.7
	c0.1,0.3,0.2,0.6,0.2,0.9c0,0.3-0.1,0.6-0.2,0.9c-0.1,0.3-0.3,0.5-0.5,0.7s-0.5,0.4-0.7,0.5C12.4,14,12.1,14,11.8,14
	c-0.3,0-0.6-0.1-0.9-0.2c-0.3-0.1-0.5-0.3-0.7-0.5l-3.1-3.1c-0.4-0.4-0.6-1-0.6-1.6C6.5,8.1,6.7,7.5,7.1,7.1z M38.3,35.2
	c-0.4-0.4-1-0.6-1.6-0.6c-0.6,0-1.1,0.2-1.5,0.6c-0.4,0.4-0.6,1-0.6,1.5c0,0.6,0.2,1.1,0.6,1.6l3.1,3.1c0.4,0.4,1,0.6,1.6,0.6
	c0.6,0,1.1-0.2,1.5-0.6s0.6-1,0.6-1.5c0-0.6-0.2-1.1-0.6-1.6L38.3,35.2z"/>
</svg>
