<?xml version="1.0" encoding="utf-8"?>
<!-- Generator: Adobe Illustrator 25.0.1, SVG Export Plug-In . SVG Version: 6.00 Build 0)  -->
<svg version="1.1" id="圖層_1" xmlns="http://www.w3.org/2000/svg" xmlns:xlink="http://www.w3.org/1999/xlink" x="0px" y="0px"
	 viewBox="0 0 26.2 23.5" style="enable-background:new 0 0 26.2 23.5;" xml:space="preserve">
<style type="text/css">
	.st0{fill:#EFF2F5;}
</style>
<path class="st0" d="M0.5,10.3c-0.1,0.1-0.1,0.2-0.2,0.3c0,0,0,0.1-0.1,0.1c-0.1,0.1-0.1,0.3-0.1,0.4c0,0,0,0,0,0.1
	c-0.1,0.3-0.1,0.7,0,1v0.1c0,0.1,0.1,0.3,0.1,0.4c0,0,0,0.1,0.1,0.1c0,0.1,0.1,0.2,0.2,0.3s0.1,0.2,0.2,0.2l0.1,0.1l9.3,9.3
	c1,1,2.6,1,3.5,0c1-1,1-2.6,0-3.5l-5-5h15.2c1.4,0,2.5-1.1,2.5-2.5s-1.1-2.5-2.5-2.5H8.7l5-5c1-1,1-2.6,0-3.5
	C13.2,0.2,12.6,0,11.9,0c-0.7,0-1.3,0.2-1.8,0.7L0.8,10C0.7,10.1,0.7,10.2,0.5,10.3C0.6,10.2,0.6,10.3,0.5,10.3z"/>
</svg>
